<?xml version="1.0" encoding="UTF-8"?>
<svg id="Layer_2" data-name="Layer 2" xmlns="http://www.w3.org/2000/svg" viewBox="0 0 345.2 124.83">
  <defs>
    <style>
      .cls-1 {
        fill: #231f20;
      }
    </style>
  </defs>
  <g id="Layer_1-2" data-name="Layer 1">
    <g>
      <g>
        <path d="M61.49.44l3.17.14c6.75.42,13.34,1.53,19.84,3.47,5.28,1.58,10.15,3.95,14.71,7.01,7.04,4.73,12.82,10.93,16.98,18.32l3.56,6.05c1.68,2.85,2.84,5.81,3.82,8.98,1.39,4.53,1.96,9.04,2.22,13.77.37,6.68.09,13.25-1.38,19.79l-.96,3.08c-4.33,15.02-14.4,27.73-27.83,35.69-6.61,3.91-13.84,6.36-21.42,7.37l-4.45.6c-2.03.27-3.97.08-6-.17l-6.68-.82c-6.9-1.15-13.39-3.53-19.36-7.15-2.98-1.75-5.55-3.85-7.85-6.42-3.96-3.25-7.23-7.17-9.52-11.77-.79-1.59-1.57-3.01-2.78-4.34-2.49-2.74-4.54-5.68-6.1-9.07l-4.38-9.46-1.48-3.36c-.46.46-.75,1.21-.67,1.97.37,3.47,1.21,6.75,2.41,10.01l2.51,6.82c.15.41.24.8-.06,1.17-.57-.43-.93-.95-1.24-1.57l-2.82-5.71c-.51-1.04-1.15-1.92-1.82-2.84-.71-.98-1.02-2.1-1.39-3.26C.07,71.2-.31,64,.2,56.11c.12-1.79.42-3.44.87-5.15.81-3.07.97-7.39,2.23-10.04l4.18-8.74c1.21-2.53,2.55-4.84,4.28-7.05,2-2.57,4.02-5.06,6.48-7.24,3.65-3.24,7.5-6.09,11.45-8.93,1.74-1.25,3.48-2.24,5.4-3.14,5.54-2.59,14.12-4.97,20.21-5.25l2.9-.13h3.31ZM63.11,111.66l8.04-.56c1.39-.76,2.84-1.17,4.42-1.45l6.22-1.66c1.61-.43,2.97-1.22,4.43-1.98l4.63-2.43,3.01-1.66,1.8-1.78c.85-.53,1.56-1.04,2.21-1.82l1.26-1.51c.28-.34.58-.63.47-1.16l-4.52,3.35c-1.61,1.19-3.21,2.28-5.2,2.79,1.29-1.22,2.51-2.48,4.05-3.38,1.14-.66,2.12-1.35,2.98-2.38l1.59-1.9c-1.49-.38-1.74.99-2.79,1.77-.55.41-1.3.35-1.86-.04l1.71-2.24c1.53-1.42,2.79-2.96,3.95-4.71l3.66-5.53c.94-1.42,1.54-2.9,2.25-4.45,1.83-4.02,2.99-8.24,3.01-12.69l.03-6.4c0-1.57-.14-3.11-.63-4.59-.39-1.18-.74-2.28-.89-3.52-.15-1.21-.5-2.31-.98-3.41l-.81-2.92-.64-2.45-2.22-4.16-1.64-3.31-3.65-5.01c-2.09-2.86-4.61-5.17-7.68-7-3.45-2.07-7.06-3.71-10.89-4.95-1.23-.4-2.5-.43-3.63-1.05-2.1-1.16-4.31-1.83-6.77-1.69-2.63.14-5.28-.42-7.33-.21-2.56.26-5,.66-7.52,1.14-2.91.56-5.6,1.45-8.3,2.63-1.01.44-1.92.94-2.72,1.68-1.01.94-2.2,1.3-3.51,1.59-1.9.42-3.06,2.85-5.8,3.39-.77.4-1.26,1.41-1.77,2.06l-2.18,2.77c-1.25,1.59-2.64,1.09-3.22,1.98l-2.95,4.51c-3.33,5.09-4.92,11.2-6.2,17.15l-.47,3.14c-.2,1.21-.61,2.32-1.39,3.29v5.19c0,.37.23.71.43,1.01.62-.6.72-1.3.69-2.08-.04-1.64.71-3.1,1.81-4.29l-.3,4.82c-.13,2.15.21,4.17.74,6.24.79,3.11.23,6.71,1.28,9.28.51,1.25.96,2.44,1.28,3.77.57,2.36,1.66,5.12,3.77,6.51l-.92-3.65c-.04-.14.42-.32.51-.19l.92,1.35,2.87,5.14c.4-.69.27-1.35.48-1.91,1.36.53,2.25,1.42,3.07,2.49l1.33,1.75,8.13,7.7,2.1,1.52c2.08,1.26,7.61,4.09,9.51,4.48l5.64,1.16c1.69.35,3.37.59,5.11.47ZM47.33,113.98c-.04-.4-.18-.65-.41-.77l-5.92-3.15c-2.2-1.17-4.29-2.43-6.08-4.21-.14.05-.28.18-.38.42,1.53,1.59,3.19,2.97,5.13,4.06l6.23,3.5c.42.24,1.01.11,1.42.15Z"/>
        <g>
          <path class="cls-1" d="M175.49,79.31h-15.64V.9h15.64v33.61h17.77V.9h15.92v78.42h-15.92v-33.61h-17.77v33.61Z"/>
          <path class="cls-1" d="M255.22,37.53l-5.69,41.79h-21.46L216.99.9h15.21l8.39,61.84L248.12.9h15.07l7.82,62.29L279.1.9h13.64l-11.09,78.42h-20.75l-5.68-41.79Z"/>
          <path class="cls-1" d="M321.59,0c15.21,0,23.03,7.17,23.03,19.72v2.46h-14.78v-3.25c0-5.6-2.84-7.73-7.82-7.73s-7.82,2.13-7.82,7.73c0,16.13,30.56,19.16,30.56,41.56,0,12.55-7.96,19.72-23.31,19.72s-23.31-7.17-23.31-19.72v-4.82h14.78v5.6c0,5.6,3.13,7.62,8.1,7.62s8.1-2.02,8.1-7.62c0-16.13-30.56-19.16-30.56-41.56,0-12.55,7.82-19.72,23.02-19.72Z"/>
        </g>
      </g>
      <g>
        <path class="cls-1" d="M179.35,98.21v4.46c0,5.48-3.35,8.47-10.19,8.47h-3.23v12.88h-6.83v-34.27h10.06c6.83,0,10.19,2.99,10.19,8.47ZM165.94,94.64v11.6h3.23c2.17,0,3.35-.78,3.35-3.23v-5.14c0-2.45-1.18-3.23-3.35-3.23h-3.23Z"/>
        <path class="cls-1" d="M204.14,124.01h-6.89l-1.18-6.22h-8.39l-1.18,6.22h-6.27l6.96-34.27h10l6.96,34.27ZM188.55,113.14h6.58l-3.29-17.33-3.29,17.33Z"/>
        <path class="cls-1" d="M202.96,89.74h21.12v4.9h-7.14v29.37h-6.83v-29.37h-7.14v-4.9Z"/>
        <path class="cls-1" d="M233.89,124.01h-6.83v-34.27h6.83v14.69h7.76v-14.69h6.96v34.27h-6.96v-14.69h-7.76v14.69Z"/>
        <path class="cls-1" d="M273.46,104.92h9.57v10.87c0,5.48-3.48,8.62-10.19,8.62s-10.19-3.13-10.19-8.62v-17.82c0-5.48,3.48-8.62,10.19-8.62s10.19,3.13,10.19,8.62v3.33h-6.46v-3.67c0-2.45-1.37-3.38-3.54-3.38s-3.54.93-3.54,3.38v18.51c0,2.45,1.37,3.33,3.54,3.33s3.54-.88,3.54-3.33v-6.32h-3.11v-4.9Z"/>
        <path class="cls-1" d="M301.72,124.01c-.37-.88-.62-1.42-.62-4.21v-5.39c0-3.18-1.37-4.36-4.47-4.36h-2.36v13.95h-6.83v-34.27h10.31c7.08,0,10.12,2.59,10.12,7.88v2.69c0,3.53-1.43,5.83-4.47,6.95,3.42,1.13,4.53,3.72,4.53,7.29v5.29c0,1.66.06,2.89.75,4.16h-6.96ZM294.27,94.64v10.53h2.67c2.55,0,4.1-.88,4.1-3.62v-3.38c0-2.45-1.06-3.52-3.48-3.52h-3.29Z"/>
        <path class="cls-1" d="M312.41,89.74h6.83v34.27h-6.83v-34.27Z"/>
        <path class="cls-1" d="M324.21,89.74h10.81c6.83,0,10.19,2.99,10.19,8.47v17.33c0,5.48-3.35,8.47-10.19,8.47h-10.81v-34.27ZM331.04,94.64v24.48h3.85c2.17,0,3.48-.88,3.48-3.33v-17.82c0-2.45-1.3-3.33-3.48-3.33h-3.85Z"/>
      </g>
    </g>
  </g>
</svg>